<?xml version="1.0" standalone="no"?>
<!DOCTYPE svg PUBLIC "-//W3C//DTD SVG 20010904//EN"
 "http://www.w3.org/TR/2001/REC-SVG-20010904/DTD/svg10.dtd">
<svg version="1.0" xmlns="http://www.w3.org/2000/svg"
 width="1280.000000pt" height="723.000000pt" viewBox="0 0 1280.000000 723.000000"
 preserveAspectRatio="xMidYMid meet">

<g transform="translate(0.000000,723.000000) scale(0.100000,-0.100000)"
fill="#000000" stroke="none">
<path d="M6617 5727 c-290 -396 -1012 -641 -1537 -521 -39 9 -74 13 -77 10
-17 -17 81 -276 179 -471 125 -253 278 -465 428 -592 113 -97 98 -99 186 19
93 126 147 183 199 211 35 19 57 22 165 23 110 0 133 4 190 26 70 28 176 85
218 118 40 32 51 9 19 -39 -43 -64 -117 -129 -193 -168 l-72 -37 18 -41 c10
-22 21 -48 24 -58 5 -16 9 -16 32 -4 48 25 143 129 176 193 18 35 36 64 41 64
12 0 8 -43 -12 -123 -36 -138 -90 -212 -181 -244 l-50 -18 0 -157 0 -158 25 0
c67 0 209 74 275 145 24 25 25 34 30 173 5 134 8 152 32 198 31 59 84 109 145
136 30 13 45 27 50 46 5 15 8 122 8 237 -1 173 -5 233 -24 340 -31 175 -103
455 -145 563 -40 104 -83 192 -94 192 -5 0 -29 -28 -55 -63z m-18 -568 c108
-19 117 -29 82 -98 -57 -112 -215 -186 -411 -193 l-75 -3 2 57 c6 174 177 275
402 237z m-724 -270 c55 -26 107 -83 103 -112 -4 -26 -149 -106 -247 -137 -76
-24 -173 -26 -238 -4 -70 23 -80 36 -58 71 60 93 138 162 212 189 61 21 175
18 228 -7z m453 -192 c12 -13 25 -37 28 -55 5 -27 1 -37 -28 -66 -66 -66 -262
-102 -308 -56 -41 41 -14 128 31 99 26 -16 108 -10 150 12 22 11 49 36 61 55
24 40 37 42 66 11z"/>
<path d="M3992 5486 c-69 -105 -168 -182 -337 -262 -286 -134 -617 -175 -835
-101 -41 14 -77 23 -79 21 -8 -7 54 -202 106 -334 93 -233 284 -575 321 -575
7 0 37 29 65 65 102 126 203 158 328 105 35 -15 76 -29 91 -32 35 -7 233 58
296 97 27 16 52 30 56 30 6 0 2 -21 -11 -56 -2 -7 16 -14 48 -18 63 -9 115
-34 156 -76 38 -39 38 -38 54 124 10 99 10 153 0 253 -19 202 -69 436 -133
633 -27 82 -73 190 -81 190 -2 0 -22 -29 -45 -64z m-23 -527 c28 -6 61 -19 73
-28 l21 -18 -22 -36 c-53 -86 -153 -137 -276 -140 l-70 -2 2 47 c2 83 58 153
141 178 39 12 74 12 131 -1z m-521 -187 c18 -13 40 -38 48 -55 16 -30 16 -32
-7 -50 -42 -35 -146 -78 -201 -84 -61 -6 -161 12 -178 32 -16 19 6 59 62 111
66 64 92 75 173 72 54 -3 77 -8 103 -26z m352 -216 c0 -35 -39 -63 -120 -85
-85 -24 -131 -26 -148 -9 -13 13 -16 56 -6 82 5 14 9 14 37 0 56 -29 167 0
167 44 0 10 6 24 13 31 10 10 16 7 35 -14 12 -14 22 -36 22 -49z"/>
<path d="M7285 5445 c-114 -194 -249 -679 -257 -925 l-3 -85 251 -3 250 -2 10
36 c9 39 43 69 51 47 12 -34 49 -64 97 -79 53 -17 65 -16 98 8 14 10 21 10 35
-4 14 -15 15 -22 4 -58 -10 -33 -10 -45 0 -56 7 -9 18 -43 24 -77 l11 -62 47
-3 c53 -3 51 -2 36 -35 -11 -24 -47 -47 -74 -47 -7 0 -24 -19 -38 -43 -26 -44
-78 -87 -132 -108 -19 -7 -111 -12 -245 -14 -215 -2 -215 -2 -218 -25 -2 -12
1 -27 8 -34 7 -7 77 -13 194 -16 l183 -5 61 -38 61 -38 83 41 c293 147 515
425 703 885 38 93 80 216 90 262 l7 33 -44 -17 c-64 -25 -323 -24 -438 1 -192
41 -423 134 -557 222 -84 56 -188 158 -230 226 -20 32 -37 58 -39 58 -2 0 -15
-20 -29 -45z m228 -557 c55 -13 121 -82 135 -140 16 -63 15 -97 -3 -104 -23
-9 -186 16 -231 35 -54 24 -111 76 -135 122 -32 63 -27 76 34 88 103 20 118
20 200 -1z m606 -228 c60 -31 141 -129 141 -170 0 -6 -17 -18 -37 -27 -60 -25
-193 -14 -263 21 -80 41 -130 77 -130 92 0 7 14 29 31 49 56 64 172 80 258 35z"/>
<path d="M10603 4436 c-60 -19 -99 -51 -130 -104 -26 -43 -28 -55 -27 -142 2
-134 43 -601 59 -684 31 -150 144 -209 239 -125 60 53 59 44 116 581 25 233
25 301 1 353 -47 103 -156 154 -258 121z"/>
<path d="M2020 4349 c-35 -14 -78 -57 -103 -104 -22 -40 -22 -44 -22 -660 0
-615 0 -620 21 -660 27 -49 49 -70 97 -90 99 -41 213 3 258 100 17 36 19 70
19 353 0 243 3 312 13 312 6 -1 39 -40 71 -88 164 -241 296 -419 324 -434 44
-26 121 -24 163 5 20 13 109 125 214 270 l180 248 5 -319 c5 -315 5 -318 30
-367 72 -139 282 -122 345 27 23 56 23 1240 0 1296 -43 102 -161 150 -253 103
-50 -26 -59 -36 -224 -263 -321 -441 -363 -497 -375 -498 -6 0 -62 71 -124
158 -269 375 -425 577 -466 600 -44 24 -127 29 -173 11z"/>
<path d="M4529 4337 c-29 -16 -54 -40 -74 -72 l-30 -48 0 -637 0 -636 28 -43
c48 -73 157 -102 244 -66 48 20 70 41 97 90 20 38 21 55 24 378 2 185 7 337
12 337 8 0 134 -173 275 -380 156 -228 171 -245 232 -256 77 -14 135 33 280
232 130 179 275 364 282 360 3 -2 7 -142 9 -311 2 -169 8 -319 13 -332 29 -77
96 -123 178 -123 87 0 146 37 182 115 17 37 19 77 19 630 0 376 -4 604 -10
627 -37 133 -201 178 -307 85 -20 -18 -75 -84 -121 -147 -115 -155 -458 -594
-477 -610 -9 -7 -17 -11 -19 -9 -2 2 -44 58 -94 124 -84 111 -149 197 -386
505 -148 192 -170 210 -259 210 -37 0 -68 -7 -98 -23z"/>
<path d="M6970 4355 c-8 -2 -32 -6 -53 -10 -45 -7 -105 -57 -124 -103 -19 -45
-20 -1229 -1 -1283 18 -52 48 -87 93 -109 39 -19 62 -20 396 -20 326 0 357 2
396 19 50 23 89 78 99 139 13 84 -48 178 -133 201 -21 6 -135 11 -255 11
l-218 0 0 104 c0 124 -23 113 228 115 157 2 182 4 221 23 126 61 136 243 18
313 -43 25 -47 25 -255 25 l-212 0 0 115 0 115 241 0 c203 0 246 3 276 16 137
66 114 282 -35 324 -33 9 -641 13 -682 5z"/>
<path d="M8680 4345 c-43 -20 -77 -50 -98 -90 -15 -27 -17 -92 -20 -608 -2
-337 1 -607 7 -648 11 -84 43 -132 105 -160 74 -34 159 -19 219 39 59 56 57
27 57 708 0 619 0 628 -21 672 -41 85 -161 126 -249 87z"/>
<path d="M9171 4350 c-47 -11 -81 -40 -109 -91 -46 -86 -10 -204 75 -244 29
-14 65 -19 153 -20 63 -1 123 -2 133 -3 16 -2 17 -32 17 -487 0 -322 4 -502
11 -537 16 -74 75 -133 142 -143 92 -14 164 18 204 91 22 39 22 44 23 529 1
270 4 505 7 523 l5 32 141 0 c169 0 211 14 252 84 29 50 34 130 10 175 -20 39
-69 78 -113 91 -44 12 -899 12 -951 0z"/>
<path d="M3930 4331 c-19 -10 -48 -37 -65 -60 l-30 -43 0 -642 0 -642 28 -43
c77 -116 265 -104 326 22 21 44 21 48 19 674 l-3 630 -28 40 c-54 79 -166 108
-247 64z"/>
<path d="M3743 4291 c-54 -21 -55 -22 -42 -60 17 -50 52 -40 90 27 33 59 28
63 -48 33z"/>
<path d="M3714 4097 c-2 -7 -3 -78 -2 -157 3 -142 4 -145 26 -148 l22 -3 0
160 c0 155 -1 161 -20 161 -11 0 -23 -6 -26 -13z"/>
<path d="M5666 3187 c-130 -187 -189 -241 -278 -253 -69 -10 -124 11 -185 68
-29 28 -55 49 -58 46 -13 -12 -117 -255 -148 -343 -61 -177 -72 -240 -72 -435
0 -155 3 -184 24 -255 84 -285 246 -438 501 -476 107 -15 288 -6 396 20 368
90 644 314 959 780 62 92 152 251 143 251 -272 8 -462 49 -674 144 -92 42
-102 44 -147 36 -106 -21 -210 31 -259 129 -27 52 -28 61 -28 202 l0 148 -37
30 c-21 17 -41 31 -44 31 -4 0 -46 -55 -93 -123z m-118 -342 c66 -20 131 -70
161 -124 29 -52 40 -157 19 -183 -12 -17 -17 -17 -93 2 -43 11 -103 31 -132
44 -96 45 -189 153 -208 244 l-7 32 104 0 c64 0 124 -6 156 -15z m678 -421
c64 -30 133 -103 173 -182 48 -95 44 -102 -63 -102 -133 0 -237 47 -359 162
-79 75 -79 81 -4 119 83 43 167 44 253 3z m-612 -61 c30 -59 101 -103 165
-103 64 0 78 -56 20 -85 -40 -21 -76 -18 -135 9 -75 35 -124 88 -124 133 0 37
23 73 46 73 8 0 20 -12 28 -27z m-232 -117 c51 -24 133 -59 183 -77 82 -31 97
-41 185 -125 52 -51 91 -96 87 -100 -24 -25 -233 62 -372 155 -84 55 -185 150
-185 174 0 9 2 17 4 17 2 0 46 -20 98 -44z m-88 -93 c50 -86 127 -163 202
-201 81 -40 114 -50 224 -65 l95 -13 -35 -22 c-96 -61 -248 -69 -353 -17 -120
59 -187 170 -187 310 0 41 4 75 8 75 4 0 25 -30 46 -67z"/>
<path d="M10611 3228 c-92 -16 -161 -102 -161 -201 0 -131 94 -216 226 -205
103 9 184 96 184 200 0 139 -111 230 -249 206z"/>
</g>
</svg>
